<svg xmlns="http://www.w3.org/2000/svg" viewBox="0 0 1200 630">
  <defs>
    <pattern id="g" width="34" height="34" patternUnits="userSpaceOnUse">
      <path d="M34 0 L0 0 0 34" fill="none" stroke="#18203a" stroke-width="1"/>
    </pattern>
  </defs>
  <rect width="1200" height="630" fill="#0e1320"/>
  <rect width="1200" height="630" fill="url(#g)"/>
  <g transform="translate(70,150)">
    <circle cx="26" cy="26" r="22" fill="none" stroke="#5fd0ff" stroke-width="6"/>
    <g stroke="#5fd0ff" stroke-width="6" stroke-linecap="round">
      <path d="M26 -6v14M26 44v14M-6 26h14M44 26h14M3 3l10 10M39 39l10 10M49 3l-10 10M13 39 3 49"/>
    </g>
  </g>
  <text x="150" y="200" font-family="-apple-system,Segoe UI,Roboto,Arial,sans-serif" font-size="68" font-weight="700" fill="#dce4f5">DSP Factory Calculator</text>
  <text x="72" y="270" font-family="-apple-system,Segoe UI,Roboto,Arial,sans-serif" font-size="30" fill="#8a98b8">Crafting ratios · station (ILS/PLS) layout · import / export · RU · EN · 中文</text>
  <g transform="translate(72,340)">
    <rect x="0" y="0" width="300" height="210" rx="12" fill="#161d2e" stroke="#ffcf5f" stroke-width="2.5"/>
    <rect x="16" y="18" width="120" height="22" rx="6" fill="#1d2740" stroke="#5fd0ff" stroke-width="1.5"/>
    <text x="30" y="34" font-family="Arial" font-size="13" fill="#5fd0ff" font-weight="700">ILS 3+1/5</text>
    <g fill="#3d6fb0" fill-opacity="0.5"><rect x="20" y="60" width="34" height="34" rx="5"/><rect x="62" y="60" width="34" height="34" rx="5"/><rect x="20" y="104" width="34" height="34" rx="5"/><rect x="62" y="104" width="34" height="34" rx="5"/></g>
    <rect x="56" y="60" width="6" height="100" rx="3" fill="#5fd0ff" fill-opacity="0.6"/>
  </g>
  <g transform="translate(410,340)">
    <rect x="0" y="0" width="300" height="210" rx="12" fill="#161d2e" stroke="#2a3550" stroke-width="2"/>
    <rect x="16" y="18" width="120" height="22" rx="6" fill="#1d2740" stroke="#5fd0ff" stroke-width="1.5"/>
    <text x="30" y="34" font-family="Arial" font-size="13" fill="#5fd0ff" font-weight="700">PLS 2+2/4</text>
    <g fill="#b07a3d" fill-opacity="0.5"><rect x="20" y="60" width="34" height="34" rx="5"/><rect x="62" y="60" width="34" height="34" rx="5"/><rect x="20" y="104" width="34" height="34" rx="5"/></g>
    <rect x="56" y="60" width="6" height="80" rx="3" fill="#ffcf5f" fill-opacity="0.6"/>
  </g>
  <g transform="translate(748,340)">
    <rect x="0" y="0" width="380" height="210" rx="12" fill="#161d2e" stroke="#2a3550" stroke-width="2"/>
    <rect x="16" y="18" width="150" height="22" rx="6" fill="#1d2740" stroke="#5fd0ff" stroke-width="1.5"/>
    <text x="30" y="34" font-family="Arial" font-size="13" fill="#5fd0ff" font-weight="700">ILS 4+1/5</text>
    <g fill="#8a6bd0" fill-opacity="0.5"><rect x="20" y="60" width="34" height="34" rx="5"/><rect x="62" y="60" width="34" height="34" rx="5"/><rect x="20" y="104" width="34" height="34" rx="5"/><rect x="62" y="104" width="34" height="34" rx="5"/><rect x="20" y="148" width="34" height="34" rx="5"/></g>
    <rect x="56" y="60" width="6" height="130" rx="3" fill="#5fd0ff" fill-opacity="0.6"/>
  </g>
</svg>
